<svg width="512" height="512" viewBox="0 0 512 512" xmlns="http://www.w3.org/2000/svg">
  <defs>
    <linearGradient id="bg" x1="0" y1="0" x2="1" y2="1">
      <stop offset="0" stop-color="#16202b"/>
      <stop offset="1" stop-color="#0c0f16"/>
    </linearGradient>
    <linearGradient id="mint" x1="0" y1="0" x2="1" y2="1">
      <stop offset="0" stop-color="#7af2dd"/>
      <stop offset="1" stop-color="#46c9b6"/>
    </linearGradient>
  </defs>
  <rect width="512" height="512" rx="112" fill="url(#bg)"/>
  <!-- ticket -->
  <path d="M168 116 h176 a16 16 0 0 1 16 16 v232 l-32 -22 -32 22 -32 -22 -32 22 -32 -22 -32 22 v-232 a16 16 0 0 1 16 -16 z"
        fill="none" stroke="url(#mint)" stroke-width="18" stroke-linejoin="round"/>
  <line x1="200" y1="176" x2="312" y2="176" stroke="url(#mint)" stroke-width="16" stroke-linecap="round"/>
  <line x1="200" y1="222" x2="296" y2="222" stroke="#5a6478" stroke-width="16" stroke-linecap="round"/>
  <line x1="200" y1="268" x2="272" y2="268" stroke="#5a6478" stroke-width="16" stroke-linecap="round"/>
  <!-- chispa / acento -->
  <circle cx="356" cy="356" r="46" fill="url(#mint)"/>
  <path d="M356 334 v44 M334 356 h44" stroke="#062b27" stroke-width="14" stroke-linecap="round"/>
</svg>
